<svg xmlns="http://www.w3.org/2000/svg" viewBox="0 0 400 300" role="img" aria-label="Kael the Windrunner">
  <defs><linearGradient id="g" x1="0" x2="1" y1="0" y2="1"><stop stop-color="#dff7ff"/><stop offset="1" stop-color="#38bdf8"/></linearGradient></defs>
  <rect width="400" height="300" rx="28" fill="url(#g)"/>
  <path d="M40 90c70-35 120 25 190-2s82 4 124 25" fill="none" stroke="#fff" stroke-width="20" stroke-linecap="round" opacity=".85"/>
  <circle cx="200" cy="104" r="45" fill="#d69b72"/>
  <path d="M158 99c8-58 76-70 93-14-27-13-55-7-93 14z" fill="#111827"/>
  <path d="M139 170c18-44 104-44 122 0l-12 82H151z" fill="#0284c7"/>
  <path d="M152 176c-40 9-74 8-105-7M248 176c40 9 74 8 105-7" stroke="#d69b72" stroke-width="18" stroke-linecap="round"/>
  <circle cx="184" cy="106" r="5" fill="#111827"/><circle cx="218" cy="106" r="5" fill="#111827"/>
  <path d="M181 127q20 15 40 0" fill="none" stroke="#7f1d1d" stroke-width="6" stroke-linecap="round"/>
  <text x="200" y="280" text-anchor="middle" font-family="Impact, sans-serif" font-size="34" fill="#fff" stroke="#111827" stroke-width="2">KAEL</text>
</svg>
