<svg xmlns="http://www.w3.org/2000/svg" viewBox="0 0 400 300" role="img" aria-label="Luna the Nightweaver">
  <defs><linearGradient id="g" x1="0" x2="1" y1="0" y2="1"><stop stop-color="#05051a"/><stop offset="1" stop-color="#7c3aed"/></linearGradient></defs>
  <rect width="400" height="300" rx="28" fill="url(#g)"/>
  <path d="M315 44a42 42 0 1 0 37 62 54 54 0 1 1-37-62z" fill="#fde68a"/>
  <circle cx="198" cy="108" r="45" fill="#e7c8b1"/>
  <path d="M148 112c4-80 103-89 111 2-37-31-73-33-111-2z" fill="#e5e7eb"/>
  <path d="M128 178c28-54 116-54 144 0l-20 78H148z" fill="#1e1b4b"/>
  <path d="M146 179c-34 31-67 44-104 49M252 179c34 31 67 44 104 49" stroke="#e7c8b1" stroke-width="18" stroke-linecap="round"/>
  <circle cx="181" cy="110" r="5" fill="#4c1d95"/><circle cx="216" cy="110" r="5" fill="#4c1d95"/>
  <path d="M180 132q18 13 38 0" fill="none" stroke="#7f1d1d" stroke-width="6" stroke-linecap="round"/>
  <text x="200" y="280" text-anchor="middle" font-family="Impact, sans-serif" font-size="34" fill="#fff" stroke="#111827" stroke-width="2">LUNA</text>
</svg>
