<svg xmlns="http://www.w3.org/2000/svg" viewBox="0 0 400 300" role="img" aria-label="Nour Al-Fajr">
  <defs><linearGradient id="g" x1="0" x2="1" y1="0" y2="1"><stop stop-color="#fff7ad"/><stop offset="1" stop-color="#0f766e"/></linearGradient></defs>
  <rect width="400" height="300" rx="28" fill="url(#g)"/>
  <path d="M42 88h316" stroke="#fbbf24" stroke-width="12" stroke-linecap="round" opacity=".5"/>
  <circle cx="200" cy="108" r="45" fill="#c98a62"/>
  <path d="M146 108c8-70 102-78 112 0-45-24-78-25-112 0z" fill="#0f766e"/>
  <path d="M132 178c24-52 112-52 136 0l-17 78H149z" fill="#14b8a6"/>
  <path d="M148 178c-38 20-70 26-104 24M252 178c38 20 70 26 104 24" stroke="#c98a62" stroke-width="18" stroke-linecap="round"/>
  <circle cx="183" cy="110" r="5" fill="#111827"/><circle cx="217" cy="110" r="5" fill="#111827"/>
  <path d="M181 132q19 14 38 0" fill="none" stroke="#7f1d1d" stroke-width="6" stroke-linecap="round"/>
  <text x="200" y="280" text-anchor="middle" font-family="Impact, sans-serif" font-size="34" fill="#fff" stroke="#111827" stroke-width="2">NOUR</text>
</svg>
