<svg xmlns="http://www.w3.org/2000/svg" viewBox="0 0 400 300" role="img" aria-label="Rima the Stormcaller">
  <defs><linearGradient id="g" x1="0" x2="1" y1="0" y2="1"><stop stop-color="#220617"/><stop offset="1" stop-color="#ef4444"/></linearGradient></defs>
  <rect width="400" height="300" rx="28" fill="url(#g)"/>
  <path d="M300 24l-54 80h40l-70 102 22-78h-40z" fill="#facc15"/>
  <circle cx="196" cy="106" r="45" fill="#c47a55"/>
  <path d="M150 94c13-64 94-74 104 25-45-31-72-21-104-25z" fill="#111827"/>
  <path d="M138 176c22-48 100-48 122 0l-12 76h-98z" fill="#7f1d1d"/>
  <path d="M151 176c-32 31-63 46-98 48M247 176c35 31 67 46 103 48" stroke="#c47a55" stroke-width="18" stroke-linecap="round"/>
  <circle cx="180" cy="108" r="5" fill="#111827"/><circle cx="215" cy="108" r="5" fill="#111827"/>
  <path d="M180 130q18 14 38 0" fill="none" stroke="#7f1d1d" stroke-width="6" stroke-linecap="round"/>
  <text x="200" y="280" text-anchor="middle" font-family="Impact, sans-serif" font-size="34" fill="#fff" stroke="#111827" stroke-width="2">RIMA</text>
</svg>
