<svg xmlns="http://www.w3.org/2000/svg" viewBox="0 0 400 300" role="img" aria-label="Tariq the Ironwall">
  <defs><linearGradient id="g" x1="0" x2="1" y1="0" y2="1"><stop stop-color="#f5d08a"/><stop offset="1" stop-color="#92400e"/></linearGradient></defs>
  <rect width="400" height="300" rx="28" fill="url(#g)"/>
  <path d="M38 233l62-80 68 80zm184 0l54-96 82 96z" fill="#78350f" opacity=".45"/>
  <circle cx="200" cy="105" r="45" fill="#9a5b35"/>
  <path d="M158 94c12-50 70-60 91-4-29-10-59-8-91 4z" fill="#1f2937"/>
  <path d="M130 178c25-58 115-58 140 0l-18 78H148z" fill="#b45309"/>
  <path d="M145 178c-37 35-72 47-105 52M255 178c37 35 72 47 105 52" stroke="#8b5a2b" stroke-width="24" stroke-linecap="round"/>
  <circle cx="184" cy="108" r="5" fill="#111827"/><circle cx="217" cy="108" r="5" fill="#111827"/>
  <path d="M181 130q19 13 39 0" fill="none" stroke="#3f1f13" stroke-width="6" stroke-linecap="round"/>
  <text x="200" y="280" text-anchor="middle" font-family="Impact, sans-serif" font-size="34" fill="#fff" stroke="#111827" stroke-width="2">TARIQ</text>
</svg>
