<svg xmlns="http://www.w3.org/2000/svg" viewBox="0 0 400 300" role="img" aria-label="Zara the Sunbeam">
  <defs><linearGradient id="g" x1="0" x2="1" y1="0" y2="1"><stop stop-color="#fff7ad"/><stop offset="1" stop-color="#7c3aed"/></linearGradient></defs>
  <rect width="400" height="300" rx="28" fill="url(#g)"/>
  <circle cx="312" cy="62" r="42" fill="#ffd600" opacity=".9"/>
  <circle cx="200" cy="112" r="46" fill="#f2b68b"/>
  <path d="M152 101c20-70 102-70 120 2-36-20-77-20-120-2z" fill="#facc15"/>
  <path d="M140 175c16-42 104-42 120 0l-12 76h-96z" fill="#6d28d9"/>
  <path d="M156 174c-34 26-62 42-96 46M244 174c34 26 62 42 96 46" stroke="#f2b68b" stroke-width="18" stroke-linecap="round"/>
  <circle cx="182" cy="112" r="5" fill="#111827"/><circle cx="218" cy="112" r="5" fill="#111827"/>
  <path d="M181 132q19 16 38 0" fill="none" stroke="#7f1d1d" stroke-width="6" stroke-linecap="round"/>
  <text x="200" y="280" text-anchor="middle" font-family="Impact, sans-serif" font-size="34" fill="#fff" stroke="#111827" stroke-width="2">ZARA</text>
</svg>
